<?xml version="1.0" encoding="UTF-8"?>
<svg id="Vrstva_1" data-name="Vrstva 1" xmlns="http://www.w3.org/2000/svg" viewBox="0 0 352.12 111.17">
  <defs>
    <style>
      .cls-1 {
        fill: #1C2448;
      }
    </style>
  </defs>
  <path class="cls-1" d="M102.22.19h61.12c-.32,4.05-1.33,7.88-1.92,12h-49.03c-.82,4.63-1.61,9.08-2.43,13.73-.12.71.42,1.36,1.14,1.36h47.7c-.77,4.24-1.5,8.19-2.24,12.26h-2.45c-14.5,0-28.99,0-43.49-.01-.56,0-1.12.03-1.68,0-1.04-.06-1.5.42-1.65,1.44-.35,2.28-.78,4.55-1.18,6.82-.37,2.13-.73,4.26-1.15,6.66,2.12.26,4.12.1,6.1.13,2.03.03,4.06,0,6.09,0h36.74c-.72,4.13-1.4,8.02-2.1,12.01h-61.3c3.88-22.2,7.79-44.3,11.71-66.41"/>
  <path class="cls-1" d="M196.14,44.5c-1.32,7.4-2.63,14.75-3.96,22.19h-12.16c.51-2.95.98-5.77,1.47-8.58,2.04-11.57,4.07-23.14,6.12-34.7.65-3.65,1.42-7.27,2.01-10.93.93-5.74,6.47-12.27,14.96-12.37,13.72-.16,27.46-.1,41.18-.02,6.8.04,11.41,5.36,10.44,12.09-.91,6.29-2.1,12.55-3.2,18.81-1.88,10.74-3.79,21.48-5.69,32.22-.19,1.1-.41,2.19-.65,3.43h-12.22c1.27-7.33,2.53-14.64,3.82-22.13h-42.13ZM198.35,32.21c.54,0,1.02,0,1.37,0,12.88,0,25.75.02,38.63,0,2,0,2.17-.18,2.53-2.26.94-5.3,1.86-10.6,2.78-15.9.29-1.65.2-1.78-1.56-1.78-12.81-.01-25.61-.01-38.42,0-1.73,0-1.88.17-2.18,1.83-.67,3.71-1.35,7.42-2,11.14-.39,2.19-.72,4.38-1.12,6.79"/>
  <path class="cls-1" d="M285.45,12.27c.64-3.76,1.24-7.27,1.85-10.77.07-.41.24-.79.42-1.4h2.03c16.59,0,33.18-.01,49.78.02,1.67,0,3.39.11,4.99.51,4.87,1.22,7.93,5.53,7.56,10.7-.17,2.43-.67,4.84-1.08,7.25-.67,4-1.41,7.98-2.08,11.98-1.17,6.97-7.32,12.7-14.34,13.24-2.02.15-4.05.04-6.08.05-11.34.03-22.68.06-34.02.09-.35,0-.7.02-1.05.01-1.01-.02-1.5.45-1.66,1.47-.64,3.86-1.33,7.71-2.02,11.57-.57,3.22-1.16,6.43-1.75,9.71h-12.18c2.05-11.61,4.07-23.12,6.13-34.77.79-.05,1.47-.12,2.15-.12,16.45,0,32.91,0,49.36,0,.35,0,.7.03,1.05.02,1.62-.06,1.92-.29,2.21-1.91.75-4.2,1.48-8.4,2.2-12.6.27-1.56.52-3.12.83-5.02-4.76-.05-9.21-.02-13.66-.03-4.55,0-9.1,0-13.65,0h-27Z"/>
  <path class="cls-1" d="M11.35.14h12.13c-3.18,18.1-6.19,36.19-9.4,54.42,2.75.27,5.15,0,7.7.02,2.59.03,5.18,0,7.77,0h38.83c-.74,4.15-1.43,8.04-2.13,12.02H0C-.3,64.93,7.58,18.75,11.35.14"/>
  <path class="cls-1" d="M97.81,94.69c1.93-1.24,3.56-2.28,5.53-3.54.72.24,1.8.7,2.93.96,1.07.25,2.2.48,3.28.39,1.55-.14,1.84-.89,1.08-2.24-.13-.24-.32-.47-.39-.73-.18-.69,0-1.39.7-1.51.39-.07,1.11.37,1.3.76.52,1.1.19,2.22-.48,3.17-.92,1.32-1.93,2.57-2.91,3.85-.5.65-1.01,1.3-1.67,2.15,1.48.8,2.81,1.52,4.25,2.29v7.67c-1.98,1-3.87,1.96-5.77,2.92-1.44-.35-2.98-1.04-4.52-1.03-1.42,0-2.85.75-4.46,1.23.29-1.67,1.63-2.46,2.4-3.6.82-1.21,1.75-2.33,2.77-3.66-1.43-.83-2.72-1.59-4.05-2.37v-6.71ZM104.85,101.02c-1.52,2.05-2.85,3.85-4.18,5.65,2.58-.38,4.77.23,7.02,1.23v-5.32c-.86-.47-1.75-.96-2.83-1.55M104.2,100.63c1.3-1.72,2.52-3.35,3.66-4.87-2.18-.47-4.19-.9-6.34-1.36,0,1.28-.07,2.66.04,4.03.04.44.47.93.85,1.25.41.35.97.53,1.79.95"/>
  <path class="cls-1" d="M135.3,94.13c-.25.1-.39.12-.5.2q-2.77,2.01-2.77,5.46c0,1.75.02,3.5,0,5.24-.02,1.27-.07,2.53,1.38,3.46-1.17.96-2.17,1.77-3.29,2.69-1.11-.87-2.13-1.68-3.31-2.61,1.61-1.1,1.39-2.67,1.38-4.19-.03-2.65-.04-5.31-.12-7.96-.03-.73-.31-1.45-.49-2.27-.71.14-1.23.25-1.76.36-.02-.15-.09-.32-.05-.36,1.19-1.06,2.39-2.1,3.52-3.08,2.07.77,2.6,2.4,2.95,4.34,1.93-1.53,3.72-2.95,5.73-4.54.82,1.02,1.56,1.94,2.32,2.88.84-.63,1.47-1.11,2.16-1.62.05.29.14.5.09.54-1.63,1.37-1.72,3.23-1.68,5.16.05,2.51-.02,5.03.03,7.55.02.86.25,1.71.41,2.68.82-.21,1.33-.34,2.17-.56-1.11,1.76-2.72,2.45-3.85,3.62-1.97-.92-2.58-2.46-2.59-4.33-.01-3,0-6.01-.02-9.02q0-2.09-1.7-3.63"/>
  <path class="cls-1" d="M160.25,94.22c2.37-1.1,4.57-2.12,6.95-3.23,1.73,2.01,3.45,3.99,5.32,6.15-2.19,1.54-4.12,3.16-6.28,4.36-2.17,1.22-2.63,2.84-1.99,5.2,1.28.52,2.69,1.09,4.11,1.66,1.03-.64,2.01-1.25,2.99-1.85-.29,1.21-1.33,1.5-2.04,2.17-2.1,1.96-4.28,2.88-7.01,1.05-.83-.55-1.97-.63-3.28-1.02,1.34-1.28,1.22-2.81,1.23-4.3.02-3.35,0-6.7,0-10.2M169.03,98.35c-1.7-1.83-3-3.57-4.99-5.18-.02,3.01-.06,5.64.03,8.66,1.83-1.29,3.28-2.3,4.95-3.48"/>
  <path class="cls-1" d="M214.12,100.06c-.14,4.59-2.29,7.92-5.77,10.56-.81.61-1.54.43-2.35.12-4.01-1.57-6.59-5.91-6.09-10.49.43-3.89,2.33-6.97,5.48-9.3.94-.7,1.83-.78,2.9-.23,3.87,1.99,5.74,5.17,5.84,9.34M209.67,108.28c4.23-3.96,2.68-13.54-5.52-15.2-4.15,3.87-2.37,13.48,5.52,15.2"/>
  <path class="cls-1" d="M186.11,108.3c4.21-1.6,8.04-1.64,12,.08-.42.52-.74.87-1,1.26-.87,1.29-1.88,1.54-3.39.96-2.55-.97-5.21-.86-7.82-.04-.57.18-1.15.32-1.93.53.11-1.72.79-2.95,1.72-3.94,1.49-1.57,3.12-3.01,4.74-4.43,1.6-1.41,3.06-2.9,3.65-5.02.55-2,.42-3.85-1.47-5.43-2.08,1.57-4.12,3.12-6.25,4.73-.76-.72-1.4-1.33-2.21-2.1,2.25-1.68,4.28-3.21,6.38-4.79,2.27,1.37,4.45,2.61,6.55,3.98.43.28.75,1.01.79,1.55.14,2.21-.47,4.22-2.29,5.59-1.85,1.38-3.82,2.58-5.75,3.83-1.27.82-2.65,1.5-3.71,3.22"/>
  <path class="cls-1" d="M231.96,107.72c.82-.89,1.43-1.54,2.15-2.31,2.32,1.33,4.6,2.64,6.82,3.92,2.09-1.62,2.83-3.54,1.92-5.76-.48-1.18-1.32-2.33-2.28-3.16-1.97-1.7-2.62-1.62-4.78-.19-.69.46-1.4.9-2.44,1.57.39-4.04,1.08-7.67,1.74-11.34h9.33c-.38.98-.7,1.81-1.08,2.82h-8.06c-.38,2.32-.74,4.49-1.19,7.21,2.41-1.58,4.41-2.89,6.38-4.18,3.89,1.53,5.78,4.46,5.12,8.12-.67,3.72-3.27,5.96-7.19,6.61-.44.07-.99-.03-1.38-.25-1.64-.93-3.23-1.93-5.06-3.04"/>
  <path class="cls-1" d="M156.94,93.75c-.71,1.02-1.3,1.88-1.96,2.83-1.2-.62-2.35-1.22-3.7-1.92v12.03c1.13.52,2.38,1.09,3.62,1.66.66-.41,1.25-.78,2.26-1.4-.37.7-.49,1.02-.69,1.29-.11.16-.34.24-.49.38-1.99,1.89-4.08,3.08-6.72,1.08-.41-.31-1.05-.32-1.58-.49-.46-.15-.9-.33-1.52-.55,1.19-1.25,1.19-2.69,1.18-4.16-.02-3.35,0-6.7,0-10.02,1.58-1.13,3.1-2.21,4.83-3.45.66.36,1.45.76,2.22,1.19.78.44,1.55.92,2.57,1.52"/>
  <path class="cls-1" d="M115.39,93.58c.98-.82,1.98-1.66,3.13-2.62,1.1.89,2.16,1.74,3.39,2.73-1.52,1.04-1.58,2.44-1.53,3.93.08,2.65,0,5.3.05,7.95.01.8.22,1.6.36,2.53.81-.18,1.38-.31,1.94-.43.24.52-1.35,1.92-3.76,3.35-1.8-.86-2.28-2.47-2.3-4.29-.04-3.07-.01-6.13-.01-9.2q0-2.21-1.26-3.95"/>
  <path class="cls-1" d="M225.83,108.69c.54-.35,1.05-.69,1.6-1.05-.26,1.12-.99,1.82-3.61,3.45-1.05-.67-2.16-1.38-3.4-2.18.98-1.37.9-2.88.88-4.4-.03-2.59,0-5.18-.01-7.77,0-.56.02-1.12-.05-1.68-.24-1.86-1.02-2.28-3.1-1.38.88-1.68,2.28-2.42,3.5-3.3.2-.14.79.12,1.12.32,1.36.83,1.64,2.17,1.64,3.63,0,3.78,0,7.56,0,11.34,0,1.15,0,2.28,1.44,3.01"/>
  <path class="cls-1" d="M119.16,88.14c.28-1.17.56-2.35.86-3.61h2.02c-.54,1.52-1.37,2.74-2.41,3.81l-.47-.2Z"/>
</svg>
